<svg width="26" height="28" viewBox="0 0 26 28" fill="none" xmlns="http://www.w3.org/2000/svg">
<path d="M18.4166 15.75C19.3141 15.75 20.0416 14.9665 20.0416 14C20.0416 13.0335 19.3141 12.25 18.4166 12.25C17.5192 12.25 16.7916 13.0335 16.7916 14C16.7916 14.9665 17.5192 15.75 18.4166 15.75Z" fill="#D9D9D9"/>
<path d="M13 15.75C13.8975 15.75 14.625 14.9665 14.625 14C14.625 13.0335 13.8975 12.25 13 12.25C12.1025 12.25 11.375 13.0335 11.375 14C11.375 14.9665 12.1025 15.75 13 15.75Z" fill="#D9D9D9"/>
<path d="M7.58325 15.75C8.48071 15.75 9.20825 14.9665 9.20825 14C9.20825 13.0335 8.48071 12.25 7.58325 12.25C6.68579 12.25 5.95825 13.0335 5.95825 14C5.95825 14.9665 6.68579 15.75 7.58325 15.75Z" fill="#D9D9D9"/>
<path d="M13 26.5417C6.57796 26.5417 1.35413 20.916 1.35413 14C1.35413 7.084 6.57796 1.45833 13 1.45833C19.422 1.45833 24.6458 7.084 24.6458 14C24.6458 20.916 19.422 26.5417 13 26.5417ZM13 3.20833C7.47496 3.20833 2.97913 8.05 2.97913 14C2.97913 19.95 7.47496 24.7917 13 24.7917C18.525 24.7917 23.0208 19.95 23.0208 14C23.0208 8.05 18.525 3.20833 13 3.20833Z" fill="#D9D9D9"/>
</svg>
