<svg width="28" height="41" viewBox="0 0 28 41" fill="none" xmlns="http://www.w3.org/2000/svg">
<path d="M23.5924 15.6483H22.036C22.0535 15.4946 22.0687 15.3374 22.0687 15.1751V11.2238C22.0687 9.54959 21.1389 8.18805 19.9944 8.18805H4.08337V5.73659C4.08337 5.02934 3.69137 4.45534 3.20837 4.45534C2.72537 4.45534 2.33337 5.02934 2.33337 5.73659V35.5846C2.33337 36.2935 2.72537 36.8658 3.20837 36.8658C3.69137 36.8658 4.08337 36.2935 4.08337 35.5846V33.1348H16.3987C17.542 33.1348 18.473 31.7733 18.473 30.0991V26.1478C18.473 25.9855 18.4567 25.8283 18.4404 25.6728H23.5935C24.7369 25.6728 25.6679 24.3096 25.6679 22.6354V18.6892C25.6679 17.0099 24.738 15.6483 23.5935 15.6483H23.5924ZM19.9967 10.7505C20.174 10.7505 20.3199 10.9624 20.3199 11.2238V15.17C20.3199 15.4331 20.174 15.6483 19.9955 15.6483H4.08337V10.7454H19.9967V10.7505ZM16.7219 26.1495V30.0991C16.7219 30.3605 16.576 30.5723 16.3975 30.5723H4.08337V25.6728H16.3987C16.5772 25.6728 16.7219 25.8881 16.7219 26.1512V26.1495ZM23.9167 22.6354C23.9167 22.8968 23.7709 23.1086 23.5924 23.1086H4.08337V18.2108H23.5924C23.7709 18.2108 23.9167 18.4227 23.9167 18.684V22.6354Z" fill="#D9D9D9"/>
</svg>
