<svg width="28" height="41" viewBox="0 0 28 41" fill="none" xmlns="http://www.w3.org/2000/svg">
<path d="M23.0417 12.4879H20.8484C20.6267 7.22625 17.6447 3.04767 14 3.04767C10.3554 3.04767 7.37337 7.22967 7.15171 12.4879H4.95837C3.51171 12.4879 2.33337 14.2082 2.33337 16.3317V33.8079C2.33337 35.9263 3.51171 37.6517 4.95837 37.6517H23.0417C24.4884 37.6517 25.6667 35.9263 25.6667 33.8079V16.3317C25.6667 14.2099 24.4884 12.4879 23.0417 12.4879V12.4879ZM14.875 26.7986V29.1835C14.875 29.8907 14.483 30.4647 14 30.4647C13.517 30.4647 13.125 29.8907 13.125 29.1835V26.7986C12.2337 26.2861 11.6002 25.022 11.6002 23.5357C11.6002 21.5933 12.6735 20.02 14 20.02C15.3254 20.02 16.3999 21.5916 16.3999 23.5323C16.3999 25.0185 15.7664 26.2827 14.875 26.7952V26.7986ZM8.92271 12.4879C9.14437 8.64417 11.3225 5.61017 14 5.61017C16.6775 5.61017 18.8569 8.64588 19.0774 12.4828H8.92271V12.4879Z" fill="#D9D9D9"/>
</svg>
