<svg width="28" height="41" viewBox="0 0 28 41" fill="none" xmlns="http://www.w3.org/2000/svg">
<path d="M20.4517 12.7612L14.6184 4.21958C14.2766 3.71904 13.7224 3.71904 13.3817 4.21958L7.54839 12.7612C7.20539 13.2618 7.20539 14.0732 7.54839 14.5721C7.89139 15.0709 8.44322 15.0743 8.78505 14.5721L13.1251 8.21708V25.625C13.1251 26.3322 13.5171 26.9062 14.0001 26.9062C14.4831 26.9062 14.8751 26.3322 14.8751 25.625V8.21708L19.2151 14.5721C19.3854 14.8232 19.6094 14.9479 19.8334 14.9479C20.0574 14.9479 20.2814 14.8249 20.4517 14.5721C20.7936 14.0715 20.7936 13.2618 20.4517 12.7612V12.7612Z" fill="#D9D9D9"/>
<path d="M22.9927 37.4877H5.00737C3.53271 37.4877 2.33337 35.7315 2.33337 33.5722V23.9167C2.33337 23.2094 2.72537 22.6354 3.20837 22.6354C3.69137 22.6354 4.08337 23.2094 4.08337 23.9167V33.5722C4.08337 34.3187 4.49754 34.9252 5.00737 34.9252H22.9927C23.5025 34.9252 23.9167 34.3187 23.9167 33.5722V23.9167C23.9167 23.2094 24.3087 22.6354 24.7917 22.6354C25.2747 22.6354 25.6667 23.2094 25.6667 23.9167V33.5722C25.6667 35.7315 24.4674 37.4877 22.9927 37.4877V37.4877Z" fill="#D9D9D9"/>
</svg>
