<svg width="28" height="41" viewBox="0 0 28 41" fill="none" xmlns="http://www.w3.org/2000/svg">
<path d="M26.25 21.3542C26.25 18.655 25.2292 16.3146 23.744 15.2042C23.9237 14.461 24.0217 13.6581 24.0217 12.8125C24.0217 9.03708 22.0267 5.98258 19.5673 5.98258C19.019 5.98258 18.494 6.12608 18.0087 6.40967C17.2877 4.12563 15.7617 2.5625 14 2.5625C12.2383 2.5625 10.7147 4.12904 9.99017 6.40625C9.50601 6.12438 8.97984 5.97917 8.43151 5.97917C5.96984 5.97917 3.97717 9.03708 3.97717 12.8125C3.97717 13.6564 4.07401 14.4593 4.25367 15.2042C2.76967 16.3146 1.74884 18.6516 1.74884 21.3542C1.74884 23.9081 2.66117 26.1341 4.01451 27.3094C3.99117 27.5998 3.97717 27.8903 3.97717 28.1875C3.97717 31.9629 5.96984 35.0208 8.43151 35.0208C8.97984 35.0208 9.50484 34.8739 9.98901 34.5938C10.7123 36.8727 12.236 38.4375 13.9988 38.4375C15.7628 38.4375 17.2865 36.8727 18.0087 34.5938C18.4928 34.8722 19.0178 35.0174 19.5673 35.0174C22.029 35.0174 24.0217 31.9595 24.0217 28.1841C24.0217 27.8868 24.0077 27.5964 23.9832 27.3077C25.3342 26.1341 26.25 23.9081 26.25 21.3559V21.3542ZM18.5313 15.6586L13.475 26.7628C13.3058 27.1335 13.0293 27.3333 12.7458 27.3333C12.579 27.3333 12.4098 27.265 12.2605 27.1181L12.1263 26.9575L9.30884 22.8319C8.96701 22.3313 8.96701 21.5199 9.30884 21.021C9.65067 20.5222 10.2048 20.5188 10.5455 21.021L12.6105 24.0397L17.073 14.2338C17.3413 13.6445 17.885 13.489 18.2863 13.8802C18.69 14.2731 18.7997 15.0692 18.5313 15.6569V15.6586Z" fill="#D9D9D9"/>
</svg>
